<svg width="26" height="27" viewBox="0 0 26 27" fill="none" xmlns="http://www.w3.org/2000/svg">
<g filter="url(#filter0_d)">
<path fill-rule="evenodd" clip-rule="evenodd" d="M21.4354 17.3951L17.146 12.9395C18.2489 11.6301 18.8532 9.98262 18.8532 8.26749C18.8532 4.26026 15.5889 1 11.5766 1C7.56435 1 4.3 4.26026 4.3 8.26749C4.3 12.2747 7.56435 15.535 11.5766 15.535C13.0829 15.535 14.5182 15.0812 15.7455 14.2199L20.0674 18.7093C20.2481 18.8967 20.4911 19 20.7514 19C20.9979 19 21.2317 18.9062 21.4092 18.7355C21.7863 18.3731 21.7983 17.7721 21.4354 17.3951ZM11.5766 2.89587C14.5423 2.89587 16.955 5.30552 16.955 8.26749C16.955 11.2295 14.5423 13.6391 11.5766 13.6391C8.61091 13.6391 6.19825 11.2295 6.19825 8.26749C6.19825 5.30552 8.61091 2.89587 11.5766 2.89587Z" fill="#BCBFC2"/>
</g>
<defs>
<filter id="filter0_d" x="-1" y="0" width="28" height="28" filterUnits="userSpaceOnUse" color-interpolation-filters="sRGB">
<feFlood flood-opacity="0" result="BackgroundImageFix"/>
<feColorMatrix in="SourceAlpha" type="matrix" values="0 0 0 0 0 0 0 0 0 0 0 0 0 0 0 0 0 0 127 0"/>
<feOffset dy="4"/>
<feGaussianBlur stdDeviation="2"/>
<feColorMatrix type="matrix" values="0 0 0 0 0 0 0 0 0 0 0 0 0 0 0 0 0 0 0.25 0"/>
<feBlend mode="normal" in2="BackgroundImageFix" result="effect1_dropShadow"/>
<feBlend mode="normal" in="SourceGraphic" in2="effect1_dropShadow" result="shape"/>
</filter>
</defs>
</svg>
